<svg width="164" height="48" viewBox="0 0 164 48" fill="none" xmlns="http://www.w3.org/2000/svg">
<path d="M8 9.76C8 7.74381 8 6.73572 8.39238 5.96563C8.73752 5.28825 9.28825 4.73752 9.96563 4.39238C10.7357 4 11.7438 4 13.76 4H42.24C44.2562 4 45.2643 4 46.0344 4.39238C46.7118 4.73752 47.2625 5.28825 47.6076 5.96563C48 6.73572 48 7.74381 48 9.76V24.4C48 27.7603 48 29.4405 47.346 30.7239C46.7708 31.8529 45.8529 32.7708 44.7239 33.346C43.4405 34 41.7603 34 38.4 34H17.6C14.2397 34 12.5595 34 11.2761 33.346C10.1471 32.7708 9.2292 31.8529 8.65396 30.7239C8 29.4405 8 27.7603 8 24.4V9.76Z" fill="#EDFF26"/>
<rect x="8" y="36.5" width="40" height="7.5" rx="3.75" fill="#EDFF26"/>
<rect x="39.25" y="38.375" width="6.875" height="3.75" rx="1.875" fill="#768013"/>
<path d="M11.125 11.805C11.125 10.8009 11.125 10.2989 11.2245 9.8846C11.5405 8.56826 12.5683 7.54049 13.8846 7.22447C14.2989 7.125 14.8009 7.125 15.805 7.125H40.195C41.1991 7.125 41.7011 7.125 42.1154 7.22447C43.4317 7.54049 44.4595 8.56826 44.7755 9.8846C44.875 10.2989 44.875 10.8009 44.875 11.805V23.075C44.875 24.7484 44.875 25.5851 44.7092 26.2757C44.1825 28.4696 42.4696 30.1825 40.2757 30.7092C39.5851 30.875 38.7484 30.875 37.075 30.875H18.925C17.2516 30.875 16.4149 30.875 15.7243 30.7092C13.5304 30.1825 11.8175 28.4696 11.2908 26.2757C11.125 25.5851 11.125 24.7484 11.125 23.075V11.805Z" fill="#778013"/>
<rect x="13.625" y="13.375" width="13.125" height="2.5" rx="1.2" fill="#FCFAFF"/>
<rect x="29.25" y="13.375" width="13.125" height="2.5" rx="1.2" fill="#FCFAFF"/>
<path d="M75.7466 15.6C78.9306 15.6 81.1466 16.168 82.3946 17.304C83.6426 18.424 84.2666 20.008 84.2666 22.056C84.2666 23.464 84.0186 24.664 83.5226 25.656C83.0266 26.632 82.1546 27.4 80.9066 27.96C79.6586 28.504 77.9386 28.776 75.7466 28.776H70.7546V33H64.8506C64.9786 29.896 65.0426 26.992 65.0426 24.288C65.0426 21.584 64.9786 18.68 64.8506 15.576H70.7546V15.6H75.7466ZM74.0666 24.144C75.3946 24.144 76.3866 24.096 77.0426 24C77.7146 23.888 78.1786 23.696 78.4346 23.424C78.7066 23.152 78.8426 22.752 78.8426 22.224C78.8426 21.696 78.7146 21.304 78.4586 21.048C78.2186 20.776 77.7626 20.592 77.0906 20.496C76.4346 20.4 75.4266 20.352 74.0666 20.352H70.7546V24.144H74.0666ZM96.7388 33.24C93.1228 33.24 90.4588 32.472 88.7467 30.936C87.0348 29.4 86.1788 27.208 86.1788 24.36C86.1788 21.496 87.0348 19.232 88.7467 17.568C90.4588 15.904 93.1228 15.072 96.7388 15.072C101.795 15.072 105.179 16.808 106.891 20.28C105.451 20.776 103.763 21.52 101.827 22.512C101.363 21.616 100.627 20.952 99.6188 20.52C98.6268 20.088 97.6108 19.872 96.5708 19.872C95.0348 19.872 93.8908 20.28 93.1388 21.096C92.3868 21.896 92.0108 22.888 92.0108 24.072C92.0108 25.352 92.4108 26.4 93.2108 27.216C94.0268 28.016 95.2668 28.416 96.9308 28.416C98.2588 28.416 99.3148 28.2 100.099 27.768C100.883 27.32 101.459 26.616 101.827 25.656C103.139 26.36 104.819 27.152 106.867 28.032C106.067 29.968 104.731 31.32 102.859 32.088C100.987 32.856 98.9468 33.24 96.7388 33.24ZM145.199 15.552H151.151V25.104C151.119 27.456 150.311 29.4 148.727 30.936C147.159 32.472 144.511 33.24 140.783 33.24C137.007 33.24 134.423 32.512 133.031 31.056C131.639 29.584 130.959 27.656 130.991 25.272V15.552H136.943V24.888C136.943 25.592 136.991 26.168 137.087 26.616C137.199 27.048 137.535 27.456 138.095 27.84C138.671 28.224 139.591 28.416 140.855 28.416C142.231 28.416 143.239 28.224 143.879 27.84C144.519 27.44 144.895 27 145.007 26.52C145.135 26.04 145.199 25.424 145.199 24.672V15.552Z" fill="#FAFBFF"/>
<path d="M129.075 25.44V29.952H125.811V33H120.075C120.139 32.328 120.187 31.312 120.219 29.952H108.819V25.104C112.547 22.24 115.875 19.064 118.803 15.576H125.811V25.44H129.075ZM120.339 20.328C119.235 21.464 118.283 22.416 117.483 23.184C116.683 23.936 115.779 24.688 114.771 25.44H120.267L120.339 20.328Z" fill="#EDFF26"/>
</svg>
